<svg width="720" height="577" viewBox="0 0 720 577" fill="none" xmlns="http://www.w3.org/2000/svg">
<g clip-path="url(#clip0_176_461)">
<path d="M53.2355 465.825C82.2528 465.825 105.776 442.299 105.776 413.279C105.776 384.259 82.2528 360.733 53.2355 360.733C24.2181 360.733 0.694946 384.259 0.694946 413.279C0.694946 442.299 24.2181 465.825 53.2355 465.825Z" stroke="#FFBA08" stroke-width="5"/>
<path d="M13.0259 418.144L17.1891 408.803H19.3241L23.5006 418.144H21.2322L17.8162 409.898H18.6702L15.2409 418.144H13.0259ZM15.1075 416.143L15.6813 414.502H20.485L21.0721 416.143H15.1075ZM28.5662 418.25C27.9613 418.25 27.432 418.117 26.9783 417.85C26.5246 417.583 26.1688 417.18 25.9108 416.638C25.6617 416.084 25.5372 415.392 25.5372 414.555C25.5372 413.71 25.6573 413.015 25.8975 412.473C26.1377 411.931 26.4846 411.525 26.9383 411.258C27.392 410.991 27.9346 410.858 28.5662 410.858C29.2423 410.858 29.8472 411.013 30.3809 411.325C30.9236 411.628 31.3505 412.056 31.6619 412.606C31.9821 413.157 32.1423 413.807 32.1423 414.555C32.1423 415.311 31.9821 415.965 31.6619 416.515C31.3505 417.069 30.9236 417.494 30.3809 417.797C29.8472 418.1 29.2423 418.25 28.5662 418.25ZM24.3229 420.733V410.966H26.3111V412.434L26.2711 414.569L26.4045 416.69V420.733H24.3229ZM28.2059 416.543C28.5528 416.543 28.8597 416.462 29.1266 416.304C29.4024 416.143 29.6203 415.915 29.7804 415.623C29.9495 415.32 30.034 414.964 30.034 414.555C30.034 414.135 29.9495 413.78 29.7804 413.488C29.6203 413.193 29.4024 412.968 29.1266 412.806C28.8597 412.645 28.5528 412.567 28.2059 412.567C27.859 412.567 27.5476 412.645 27.2719 412.806C26.9961 412.968 26.7782 413.193 26.618 413.488C26.4579 413.78 26.3778 414.135 26.3778 414.555C26.3778 414.964 26.4579 415.32 26.618 415.623C26.7782 415.915 26.9961 416.143 27.2719 416.304C27.5476 416.462 27.859 416.543 28.2059 416.543ZM37.7791 418.25C37.1742 418.25 36.6449 418.117 36.1912 417.85C35.7375 417.583 35.3817 417.18 35.1237 416.638C34.8747 416.084 34.7501 415.392 34.7501 414.555C34.7501 413.71 34.8702 413.015 35.1104 412.473C35.3506 411.931 35.6975 411.525 36.1512 411.258C36.6049 410.991 37.1475 410.858 37.7791 410.858C38.4552 410.858 39.0601 411.013 39.5939 411.325C40.1365 411.628 40.5635 412.056 40.8748 412.606C41.1951 413.157 41.3552 413.807 41.3552 414.555C41.3552 415.311 41.1951 415.965 40.8748 416.515C40.5635 417.069 40.1365 417.494 39.5939 417.797C39.0601 418.1 38.4552 418.25 37.7791 418.25ZM33.5358 420.733V410.966H35.524V412.434L35.484 414.569L35.6174 416.69V420.733H33.5358ZM37.4188 416.543C37.7658 416.543 38.0727 416.462 38.3396 416.304C38.6153 416.143 38.8333 415.915 38.9934 415.623C39.1624 415.32 39.2469 414.964 39.2469 414.555C39.2469 414.135 39.1624 413.78 38.9934 413.488C38.8333 413.193 38.6153 412.968 38.3396 412.806C38.0727 412.645 37.7658 412.567 37.4188 412.567C37.0719 412.567 36.7606 412.645 36.4848 412.806C36.209 412.968 35.9911 413.193 35.8309 413.488C35.6708 413.78 35.5908 414.135 35.5908 414.555C35.5908 414.964 35.6708 415.32 35.8309 415.623C35.9911 415.915 36.209 416.143 36.4848 416.304C36.7606 416.462 37.0719 416.543 37.4188 416.543ZM46.5275 418.144V408.241H48.6091V418.144H46.5275ZM54.9446 418.144V416.743L54.8112 416.437V413.927C54.8112 413.482 54.6733 413.135 54.3975 412.887C54.1306 412.637 53.717 412.512 53.1565 412.512C52.774 412.512 52.396 412.576 52.0223 412.701C51.6576 412.815 51.3463 412.976 51.0883 413.179L50.341 411.725C50.7324 411.45 51.2039 411.236 51.7555 411.085C52.307 410.933 52.8674 410.858 53.4368 410.858C54.5309 410.858 55.3805 411.116 55.9854 411.633C56.5903 412.148 56.8928 412.954 56.8928 414.046V418.144H54.9446ZM52.7562 418.25C52.1958 418.25 51.7154 418.158 51.3151 417.972C50.9148 417.775 50.6079 417.513 50.3944 417.183C50.1809 416.854 50.0742 416.485 50.0742 416.076C50.0742 415.648 50.1765 415.275 50.3811 414.956C50.5946 414.636 50.9282 414.386 51.3818 414.208C51.8355 414.021 52.4271 413.927 53.1565 413.927H55.0647V415.142H53.3834C52.8941 415.142 52.5561 415.222 52.3693 415.381C52.1914 415.542 52.1024 415.742 52.1024 415.981C52.1024 416.248 52.2047 416.462 52.4093 416.624C52.6228 416.774 52.9119 416.849 53.2766 416.849C53.6236 416.849 53.9349 416.771 54.2107 416.61C54.4865 416.44 54.6866 416.196 54.8112 415.876L55.1314 416.838C54.9802 417.299 54.7044 417.65 54.3041 417.891C53.9038 418.131 53.3878 418.25 52.7562 418.25ZM61.8057 418.25C61.2097 418.25 60.676 418.136 60.2045 417.905C59.7419 417.672 59.3816 417.322 59.1236 416.849C58.8657 416.371 58.7367 415.759 58.7367 415.022V410.966H60.8183V414.714C60.8183 415.311 60.9428 415.751 61.1919 416.037C61.4499 416.312 61.8102 416.449 62.2727 416.449C62.593 416.449 62.8777 416.382 63.1267 416.248C63.3758 416.107 63.5715 415.892 63.7139 415.609C63.8562 415.314 63.9274 414.95 63.9274 414.513V410.966H66.009V418.144H64.0341V416.171L64.3944 416.743C64.1542 417.241 63.7984 417.619 63.3269 417.878C62.8643 418.128 62.3573 418.25 61.8057 418.25ZM72.3008 410.858C72.8701 410.858 73.3771 410.974 73.8219 411.205C74.2756 411.427 74.6315 411.775 74.8894 412.245C75.1474 412.709 75.2764 413.304 75.2764 414.035V418.144H73.1948V414.355C73.1948 413.777 73.0658 413.349 72.8078 413.073C72.5587 412.798 72.2029 412.659 71.7403 412.659C71.4112 412.659 71.1132 412.731 70.8463 412.873C70.5883 413.007 70.3837 413.215 70.2325 413.502C70.0902 413.785 70.019 414.149 70.019 414.594V418.144H67.9374V410.966H69.9256V412.954L69.552 412.353C69.8099 411.872 70.1791 411.503 70.6595 411.244C71.1399 410.988 71.687 410.858 72.3008 410.858ZM80.6847 418.25C79.9108 418.25 79.2214 418.094 78.6165 417.783C78.0116 417.463 77.5356 417.024 77.1887 416.462C76.8507 415.904 76.6816 415.267 76.6816 414.555C76.6816 413.835 76.8507 413.198 77.1887 412.645C77.5356 412.086 78.0116 411.65 78.6165 411.338C79.2214 411.019 79.9108 410.858 80.6847 410.858C81.4409 410.858 82.0992 411.019 82.6596 411.338C83.22 411.65 83.6337 412.1 83.9005 412.687L82.286 413.554C82.0992 413.215 81.8634 412.968 81.5788 412.806C81.303 412.645 81.0005 412.567 80.6714 412.567C80.3156 412.567 79.9953 412.645 79.7106 412.806C79.426 412.968 79.1991 413.193 79.0301 413.488C78.87 413.78 78.7899 414.135 78.7899 414.555C78.7899 414.972 78.87 415.328 79.0301 415.623C79.1991 415.915 79.426 416.143 79.7106 416.304C79.9953 416.462 80.3156 416.543 80.6714 416.543C81.0005 416.543 81.303 416.468 81.5788 416.315C81.8634 416.157 82.0992 415.904 82.286 415.556L83.9005 416.437C83.6337 417.016 83.22 417.463 82.6596 417.783C82.0992 418.094 81.4409 418.25 80.6847 418.25ZM89.4231 410.858C89.9925 410.858 90.4995 410.974 90.9443 411.205C91.398 411.427 91.7538 411.775 92.0118 412.245C92.2698 412.709 92.3988 413.304 92.3988 414.035V418.144H90.3172V414.355C90.3172 413.777 90.1882 413.349 89.9302 413.073C89.6811 412.798 89.3253 412.659 88.8627 412.659C88.5336 412.659 88.2356 412.731 87.9687 412.873C87.7107 413.007 87.5061 413.215 87.3549 413.502C87.2125 413.785 87.1414 414.149 87.1414 414.594V418.144H85.0598V408.241H87.1414V412.954L86.6743 412.353C86.9323 411.872 87.3015 411.503 87.7819 411.244C88.2622 410.988 88.8093 410.858 89.4231 410.858Z" fill="#81BC06"/>
<path d="M301.205 324.312H179.166V501.968H301.205V324.312Z" stroke="#05A6F0" stroke-width="5"/>
<path d="M196.395 418.144V408.803H198.556V416.382H203.24V418.144H196.395ZM207.678 418.25C206.913 418.25 206.232 418.092 205.636 417.772C205.049 417.449 204.582 417.016 204.235 416.462C203.897 415.904 203.728 415.267 203.728 414.555C203.728 413.835 203.897 413.198 204.235 412.645C204.582 412.086 205.049 411.65 205.636 411.338C206.232 411.019 206.913 410.857 207.678 410.857C208.434 410.857 209.11 411.019 209.706 411.338C210.302 411.65 210.769 412.081 211.107 412.634C211.445 413.185 211.614 413.824 211.614 414.555C211.614 415.267 211.445 415.904 211.107 416.462C210.769 417.016 210.302 417.449 209.706 417.772C209.11 418.092 208.434 418.25 207.678 418.25ZM207.678 416.543C208.025 416.543 208.336 416.462 208.612 416.304C208.888 416.143 209.106 415.915 209.266 415.623C209.426 415.32 209.506 414.964 209.506 414.555C209.506 414.135 209.426 413.779 209.266 413.488C209.106 413.193 208.888 412.968 208.612 412.806C208.336 412.645 208.025 412.567 207.678 412.567C207.331 412.567 207.02 412.645 206.744 412.806C206.468 412.968 206.246 413.193 206.077 413.488C205.917 413.779 205.837 414.135 205.837 414.555C205.837 414.964 205.917 415.32 206.077 415.623C206.246 415.915 206.468 416.143 206.744 416.304C207.02 416.462 207.331 416.543 207.678 416.543ZM216.382 420.841C215.706 420.841 215.052 420.755 214.42 420.585C213.797 420.427 213.277 420.182 212.859 419.851L213.686 418.358C213.989 418.606 214.371 418.803 214.834 418.945C215.305 419.095 215.768 419.173 216.221 419.173C216.96 419.173 217.494 419.006 217.823 418.678C218.161 418.35 218.33 417.861 218.33 417.21V416.129L218.463 414.327L218.437 412.512V410.966H220.411V416.943C220.411 418.278 220.064 419.262 219.371 419.893C218.677 420.524 217.68 420.841 216.382 420.841ZM216.061 417.797C215.394 417.797 214.789 417.655 214.247 417.372C213.713 417.077 213.281 416.671 212.952 416.157C212.632 415.631 212.472 415.022 212.472 414.327C212.472 413.624 212.632 413.015 212.952 412.501C213.281 411.975 213.713 411.569 214.247 411.286C214.789 410.999 215.394 410.857 216.061 410.857C216.666 410.857 217.2 410.983 217.663 411.233C218.125 411.472 218.485 411.85 218.743 412.367C219.001 412.873 219.13 413.526 219.13 414.327C219.13 415.12 219.001 415.773 218.743 416.29C218.485 416.796 218.125 417.174 217.663 417.424C217.2 417.672 216.666 417.797 216.061 417.797ZM216.475 416.09C216.84 416.09 217.164 416.018 217.449 415.876C217.734 415.726 217.956 415.514 218.116 415.247C218.276 414.981 218.356 414.675 218.356 414.327C218.356 413.971 218.276 413.665 218.116 413.407C217.956 413.14 217.734 412.934 217.449 412.792C217.164 412.642 216.84 412.567 216.475 412.567C216.11 412.567 215.786 412.642 215.501 412.792C215.216 412.934 214.989 413.14 214.82 413.407C214.66 413.665 214.58 413.971 214.58 414.327C214.58 414.675 214.66 414.981 214.82 415.247C214.989 415.514 215.216 415.726 215.501 415.876C215.786 416.018 216.11 416.09 216.475 416.09ZM222.349 418.144V410.966H224.431V418.144H222.349ZM223.39 409.965C223.007 409.965 222.696 409.854 222.456 409.631C222.216 409.409 222.095 409.131 222.095 408.803C222.095 408.475 222.216 408.197 222.456 407.974C222.696 407.752 223.007 407.641 223.39 407.641C223.772 407.641 224.084 407.749 224.324 407.963C224.564 408.166 224.684 408.433 224.684 408.764C224.684 409.109 224.564 409.398 224.324 409.631C224.093 409.854 223.781 409.965 223.39 409.965ZM230.726 410.857C231.295 410.857 231.802 410.974 232.247 411.205C232.701 411.427 233.056 411.775 233.314 412.245C233.572 412.709 233.701 413.304 233.701 414.035V418.144H231.62V414.355C231.62 413.777 231.491 413.349 231.233 413.073C230.984 412.798 230.628 412.659 230.165 412.659C229.836 412.659 229.538 412.731 229.271 412.873C229.013 413.007 228.809 413.215 228.657 413.501C228.515 413.785 228.444 414.149 228.444 414.594V418.144H226.362V410.966H228.351V412.954L227.977 412.353C228.235 411.872 228.604 411.502 229.084 411.244C229.565 410.988 230.112 410.857 230.726 410.857ZM241.783 418.25C241.169 418.25 240.577 418.181 240.008 418.039C239.447 417.886 239.003 417.7 238.674 417.477L239.367 415.981C239.697 416.187 240.083 416.357 240.528 416.49C240.982 416.615 241.427 416.676 241.863 416.676C242.343 416.676 242.681 416.618 242.877 416.504C243.081 416.387 243.184 416.226 243.184 416.023C243.184 415.854 243.104 415.728 242.943 415.648C242.792 415.559 242.588 415.492 242.33 415.448C242.072 415.403 241.787 415.359 241.476 415.314C241.173 415.27 240.866 415.214 240.555 415.142C240.244 415.061 239.959 414.947 239.701 414.794C239.443 414.644 239.234 414.438 239.074 414.18C238.923 413.924 238.847 413.59 238.847 413.179C238.847 412.726 238.976 412.325 239.234 411.978C239.501 411.633 239.883 411.361 240.381 411.166C240.88 410.96 241.476 410.857 242.17 410.857C242.659 410.857 243.157 410.91 243.664 411.019C244.171 411.124 244.594 411.28 244.932 411.486L244.238 412.968C243.891 412.762 243.539 412.623 243.184 412.553C242.837 412.473 242.499 412.434 242.17 412.434C241.707 412.434 241.369 412.495 241.155 412.62C240.942 412.745 240.835 412.904 240.835 413.101C240.835 413.279 240.911 413.412 241.062 413.501C241.222 413.59 241.431 413.66 241.689 413.713C241.947 413.768 242.227 413.816 242.53 413.86C242.841 413.896 243.153 413.955 243.464 414.035C243.775 414.113 244.055 414.23 244.305 414.38C244.562 414.525 244.772 414.725 244.932 414.981C245.092 415.231 245.172 415.559 245.172 415.97C245.172 416.415 245.038 416.81 244.772 417.157C244.505 417.494 244.118 417.761 243.611 417.958C243.112 418.153 242.503 418.25 241.783 418.25ZM249.926 418.25C249.152 418.25 248.462 418.094 247.857 417.783C247.252 417.463 246.776 417.024 246.429 416.462C246.091 415.904 245.922 415.267 245.922 414.555C245.922 413.835 246.091 413.198 246.429 412.645C246.776 412.086 247.252 411.65 247.857 411.338C248.462 411.019 249.152 410.857 249.926 410.857C250.682 410.857 251.34 411.019 251.9 411.338C252.461 411.65 252.874 412.1 253.141 412.687L251.527 413.554C251.34 413.215 251.104 412.968 250.82 412.806C250.544 412.645 250.241 412.567 249.912 412.567C249.556 412.567 249.236 412.645 248.951 412.806C248.667 412.968 248.44 413.193 248.271 413.488C248.111 413.779 248.031 414.135 248.031 414.555C248.031 414.972 248.111 415.328 248.271 415.623C248.44 415.915 248.667 416.143 248.951 416.304C249.236 416.462 249.556 416.543 249.912 416.543C250.241 416.543 250.544 416.468 250.82 416.315C251.104 416.157 251.34 415.904 251.527 415.556L253.141 416.437C252.874 417.016 252.461 417.463 251.9 417.783C251.34 418.094 250.682 418.25 249.926 418.25ZM254.34 418.144V410.966H256.328V412.993L256.048 412.406C256.261 411.9 256.604 411.516 257.075 411.258C257.547 410.991 258.12 410.857 258.797 410.857V412.779C258.708 412.77 258.628 412.767 258.556 412.767C258.485 412.756 258.41 412.754 258.33 412.754C257.76 412.754 257.298 412.918 256.942 413.246C256.595 413.568 256.421 414.069 256.421 414.755V418.144H254.34ZM263.545 418.25C262.727 418.25 262.006 418.092 261.383 417.772C260.769 417.449 260.294 417.016 259.955 416.462C259.617 415.904 259.448 415.267 259.448 414.555C259.448 413.835 259.613 413.198 259.942 412.645C260.28 412.086 260.738 411.65 261.317 411.338C261.895 411.019 262.549 410.857 263.278 410.857C263.981 410.857 264.612 411.01 265.173 411.311C265.742 411.605 266.191 412.034 266.521 412.592C266.85 413.146 267.014 413.807 267.014 414.58C267.014 414.661 267.01 414.755 267.001 414.861C266.992 414.958 266.983 415.053 266.974 415.142H261.143V413.927H265.88L265.079 414.288C265.079 413.913 265.004 413.59 264.853 413.312C264.701 413.037 264.492 412.823 264.225 412.673C263.959 412.512 263.647 412.434 263.291 412.434C262.936 412.434 262.62 412.512 262.344 412.673C262.077 412.823 261.868 413.043 261.717 413.326C261.566 413.602 261.49 413.932 261.49 414.313V414.636C261.49 415.025 261.575 415.373 261.744 415.676C261.921 415.97 262.166 416.195 262.477 416.357C262.798 416.507 263.171 416.582 263.598 416.582C263.981 416.582 264.314 416.526 264.599 416.41C264.893 416.293 265.16 416.12 265.4 415.89L266.507 417.091C266.178 417.463 265.764 417.752 265.266 417.958C264.768 418.153 264.194 418.25 263.545 418.25ZM271.963 418.25C271.144 418.25 270.424 418.092 269.801 417.772C269.187 417.449 268.711 417.016 268.373 416.462C268.035 415.904 267.866 415.267 267.866 414.555C267.866 413.835 268.031 413.198 268.36 412.645C268.698 412.086 269.156 411.65 269.734 411.338C270.313 411.019 270.966 410.857 271.696 410.857C272.399 410.857 273.03 411.01 273.591 411.311C274.16 411.605 274.609 412.034 274.938 412.592C275.268 413.146 275.432 413.807 275.432 414.58C275.432 414.661 275.428 414.755 275.419 414.861C275.41 414.958 275.401 415.053 275.392 415.142H269.561V413.927H274.298L273.497 414.288C273.497 413.913 273.422 413.59 273.27 413.312C273.119 413.037 272.91 412.823 272.643 412.673C272.376 412.512 272.065 412.434 271.709 412.434C271.353 412.434 271.038 412.512 270.762 412.673C270.495 412.823 270.286 413.043 270.135 413.326C269.984 413.602 269.908 413.932 269.908 414.313V414.636C269.908 415.025 269.992 415.373 270.161 415.676C270.339 415.97 270.584 416.195 270.895 416.357C271.216 416.507 271.589 416.582 272.016 416.582C272.399 416.582 272.732 416.526 273.017 416.41C273.311 416.293 273.577 416.12 273.818 415.89L274.925 417.091C274.596 417.463 274.182 417.752 273.684 417.958C273.186 418.153 272.612 418.25 271.963 418.25ZM281.181 410.857C281.751 410.857 282.257 410.974 282.701 411.205C283.157 411.427 283.513 411.775 283.769 412.245C284.027 412.709 284.158 413.304 284.158 414.035V418.144H282.076V414.355C282.076 413.777 281.945 413.349 281.689 413.073C281.439 412.798 281.083 412.659 280.622 412.659C280.291 412.659 279.994 412.731 279.727 412.873C279.468 413.007 279.265 413.215 279.113 413.501C278.971 413.785 278.898 414.149 278.898 414.594V418.144H276.818V410.966H278.807V412.954L278.431 412.353C278.69 411.872 279.06 411.502 279.541 411.244C280.022 410.988 280.566 410.857 281.181 410.857Z" fill="#81BC06"/>
<path d="M449.187 338.779L374.884 413.09L449.187 487.401L523.491 413.09L449.187 338.779Z" stroke="#FFBA08" stroke-width="5"/>
<path d="M427.374 409.754V400.412H429.537V409.754H427.374ZM434.021 409.862C433.407 409.862 432.815 409.79 432.247 409.648C431.686 409.495 431.241 409.309 430.913 409.086L431.605 407.594C431.936 407.796 432.323 407.966 432.767 408.1C433.22 408.225 433.665 408.286 434.102 408.286C434.583 408.286 434.919 408.227 435.116 408.113C435.319 407.997 435.422 407.838 435.422 407.632C435.422 407.463 435.342 407.338 435.183 407.26C435.03 407.171 434.827 407.104 434.569 407.06C434.31 407.015 434.027 406.971 433.715 406.926C433.412 406.882 433.104 406.823 432.792 406.751C432.481 406.67 432.197 406.556 431.939 406.404C431.68 406.253 431.472 406.048 431.313 405.792C431.161 405.533 431.085 405.2 431.085 404.791C431.085 404.335 431.213 403.935 431.472 403.59C431.739 403.242 432.122 402.97 432.62 402.775C433.118 402.57 433.715 402.467 434.407 402.467C434.897 402.467 435.394 402.522 435.903 402.628C436.409 402.734 436.832 402.889 437.171 403.095L436.476 404.577C436.128 404.371 435.778 404.235 435.422 404.163C435.075 404.082 434.738 404.043 434.407 404.043C433.946 404.043 433.607 404.104 433.393 404.229C433.182 404.355 433.073 404.513 433.073 404.71C433.073 404.888 433.148 405.022 433.301 405.111C433.46 405.2 433.671 405.269 433.927 405.325C434.185 405.378 434.466 405.425 434.769 405.469C435.08 405.506 435.392 405.564 435.703 405.645C436.014 405.725 436.295 405.839 436.542 405.992C436.801 406.134 437.009 406.334 437.171 406.593C437.329 406.84 437.41 407.171 437.41 407.58C437.41 408.024 437.276 408.419 437.009 408.767C436.743 409.106 436.356 409.373 435.85 409.567C435.35 409.762 434.741 409.862 434.021 409.862ZM445.502 409.862C444.907 409.862 444.374 409.745 443.901 409.515C443.439 409.284 443.078 408.931 442.82 408.461C442.561 407.98 442.433 407.371 442.433 406.632V402.575H444.515V406.326C444.515 406.921 444.64 407.36 444.888 407.646C445.146 407.922 445.508 408.061 445.969 408.061C446.289 408.061 446.575 407.994 446.823 407.86C447.073 407.716 447.267 407.505 447.409 407.218C447.554 406.926 447.623 406.559 447.623 406.126V402.575H449.705V409.754H447.732V407.78L448.09 408.353C447.851 408.85 447.495 409.228 447.023 409.487C446.561 409.737 446.053 409.862 445.502 409.862ZM454.05 409.862C453.436 409.862 452.844 409.79 452.274 409.648C451.715 409.495 451.27 409.309 450.94 409.086L451.635 407.594C451.963 407.796 452.349 407.966 452.794 408.1C453.25 408.225 453.695 408.286 454.128 408.286C454.609 408.286 454.948 408.227 455.143 408.113C455.349 407.997 455.451 407.838 455.451 407.632C455.451 407.463 455.371 407.338 455.21 407.26C455.06 407.171 454.854 407.104 454.595 407.06C454.34 407.015 454.053 406.971 453.742 406.926C453.439 406.882 453.133 406.823 452.822 406.751C452.51 406.67 452.227 406.556 451.968 406.404C451.71 406.253 451.501 406.048 451.34 405.792C451.19 405.533 451.115 405.2 451.115 404.791C451.115 404.335 451.243 403.935 451.501 403.59C451.768 403.242 452.149 402.97 452.649 402.775C453.147 402.57 453.742 402.467 454.437 402.467C454.926 402.467 455.424 402.522 455.93 402.628C456.438 402.734 456.861 402.889 457.197 403.095L456.505 404.577C456.158 404.371 455.807 404.235 455.451 404.163C455.104 404.082 454.765 404.043 454.437 404.043C453.973 404.043 453.636 404.104 453.422 404.229C453.208 404.355 453.102 404.513 453.102 404.71C453.102 404.888 453.177 405.022 453.328 405.111C453.489 405.2 453.697 405.269 453.956 405.325C454.214 405.378 454.495 405.425 454.795 405.469C455.107 405.506 455.418 405.564 455.729 405.645C456.041 405.725 456.322 405.839 456.572 405.992C456.83 406.134 457.039 406.334 457.197 406.593C457.359 406.84 457.439 407.171 457.439 407.58C457.439 408.024 457.306 408.419 457.039 408.767C456.772 409.106 456.386 409.373 455.877 409.567C455.379 409.762 454.77 409.862 454.05 409.862ZM462.285 409.862C461.467 409.862 460.747 409.701 460.125 409.381C459.51 409.061 459.035 408.625 458.696 408.072C458.359 407.513 458.19 406.876 458.19 406.164C458.19 405.444 458.354 404.808 458.682 404.257C459.021 403.696 459.48 403.259 460.058 402.948C460.636 402.628 461.289 402.467 462.018 402.467C462.721 402.467 463.352 402.62 463.914 402.923C464.483 403.215 464.931 403.643 465.262 404.202C465.59 404.755 465.754 405.417 465.754 406.192C465.754 406.27 465.751 406.365 465.743 406.47C465.732 406.57 465.723 406.662 465.715 406.751H459.883V405.536H464.62L463.819 405.898C463.819 405.525 463.744 405.2 463.594 404.924C463.441 404.646 463.232 404.435 462.966 404.282C462.699 404.124 462.387 404.043 462.032 404.043C461.676 404.043 461.362 404.124 461.084 404.282C460.817 404.435 460.608 404.652 460.458 404.936C460.305 405.214 460.23 405.542 460.23 405.925V406.245C460.23 406.637 460.316 406.982 460.483 407.285C460.661 407.58 460.906 407.805 461.217 407.966C461.54 408.116 461.912 408.194 462.34 408.194C462.721 408.194 463.055 408.136 463.341 408.019C463.633 407.905 463.9 407.73 464.142 407.499L465.248 408.7C464.92 409.073 464.506 409.362 464.008 409.567C463.508 409.762 462.935 409.862 462.285 409.862ZM467.141 409.754V402.575H469.129V404.602L468.848 404.015C469.062 403.509 469.404 403.126 469.877 402.867C470.349 402.6 470.922 402.467 471.597 402.467V404.391C471.508 404.38 471.428 404.377 471.358 404.377C471.286 404.368 471.211 404.363 471.13 404.363C470.56 404.363 470.099 404.527 469.743 404.858C469.396 405.177 469.223 405.681 469.223 406.365V409.754H467.141ZM421.578 426.157V416.257H423.66V426.157H421.578ZM429.009 426.265C428.242 426.265 427.563 426.104 426.966 425.784C426.379 425.465 425.912 425.028 425.565 424.475C425.228 423.916 425.059 423.279 425.059 422.568C425.059 421.848 425.228 421.211 425.565 420.661C425.912 420.099 426.379 419.662 426.966 419.351C427.563 419.031 428.242 418.87 429.009 418.87C429.765 418.87 430.441 419.031 431.035 419.351C431.633 419.662 432.1 420.093 432.436 420.647C432.776 421.197 432.945 421.839 432.945 422.568C432.945 423.279 432.776 423.916 432.436 424.475C432.1 425.028 431.633 425.465 431.035 425.784C430.441 426.104 429.765 426.265 429.009 426.265ZM429.009 424.556C429.354 424.556 429.665 424.475 429.943 424.316C430.218 424.155 430.435 423.93 430.596 423.635C430.755 423.332 430.835 422.976 430.835 422.568C430.835 422.151 430.755 421.795 430.596 421.5C430.435 421.205 430.218 420.98 429.943 420.819C429.665 420.661 429.354 420.58 429.009 420.58C428.661 420.58 428.35 420.661 428.075 420.819C427.797 420.98 427.574 421.205 427.408 421.5C427.246 421.795 427.166 422.151 427.166 422.568C427.166 422.976 427.246 423.332 427.408 423.635C427.574 423.93 427.797 424.155 428.075 424.316C428.35 424.475 428.661 424.556 429.009 424.556ZM437.713 428.854C437.035 428.854 436.381 428.768 435.75 428.601C435.127 428.44 434.608 428.195 434.188 427.867L435.016 426.371C435.319 426.621 435.7 426.816 436.164 426.958C436.634 427.111 437.098 427.186 437.552 427.186C438.291 427.186 438.825 427.022 439.153 426.691C439.492 426.363 439.659 425.873 439.659 425.223V424.141L439.792 422.34L439.767 420.527V418.978H441.741V424.956C441.741 426.29 441.393 427.275 440.701 427.906C440.006 428.537 439.011 428.854 437.713 428.854ZM437.39 425.809C436.723 425.809 436.12 425.668 435.578 425.384C435.044 425.089 434.61 424.686 434.282 424.169C433.963 423.644 433.801 423.035 433.801 422.34C433.801 421.639 433.963 421.028 434.282 420.513C434.61 419.988 435.044 419.582 435.578 419.298C436.12 419.015 436.723 418.87 437.39 418.87C437.996 418.87 438.53 418.995 438.992 419.245C439.456 419.484 439.814 419.863 440.073 420.38C440.331 420.886 440.459 421.539 440.459 422.34C440.459 423.132 440.331 423.785 440.073 424.303C439.814 424.809 439.456 425.187 438.992 425.437C438.53 425.687 437.996 425.809 437.39 425.809ZM437.805 424.102C438.169 424.102 438.494 424.03 438.78 423.888C439.064 423.738 439.286 423.53 439.447 423.263C439.606 422.996 439.687 422.687 439.687 422.34C439.687 421.984 439.606 421.678 439.447 421.42C439.286 421.153 439.064 420.95 438.78 420.805C438.494 420.655 438.169 420.58 437.805 420.58C437.44 420.58 437.115 420.655 436.832 420.805C436.545 420.95 436.32 421.153 436.15 421.42C435.989 421.678 435.911 421.984 435.911 422.34C435.911 422.687 435.989 422.996 436.15 423.263C436.32 423.53 436.545 423.738 436.832 423.888C437.115 424.03 437.44 424.102 437.805 424.102ZM447.053 428.854C446.378 428.854 445.725 428.768 445.093 428.601C444.471 428.44 443.951 428.195 443.531 427.867L444.36 426.371C444.663 426.621 445.043 426.816 445.508 426.958C445.977 427.111 446.442 427.186 446.895 427.186C447.632 427.186 448.165 427.022 448.496 426.691C448.832 426.363 449.002 425.873 449.002 425.223V424.141L449.136 422.34L449.11 420.527V418.978H451.084V424.956C451.084 426.29 450.737 427.275 450.045 427.906C449.35 428.537 448.354 428.854 447.053 428.854ZM446.734 425.809C446.066 425.809 445.463 425.668 444.918 425.384C444.385 425.089 443.954 424.686 443.626 424.169C443.306 423.644 443.145 423.035 443.145 422.34C443.145 421.639 443.306 421.028 443.626 420.513C443.954 419.988 444.385 419.582 444.918 419.298C445.463 419.015 446.066 418.87 446.734 418.87C447.34 418.87 447.873 418.995 448.335 419.245C448.799 419.484 449.158 419.863 449.416 420.38C449.675 420.886 449.803 421.539 449.803 422.34C449.803 423.132 449.675 423.785 449.416 424.303C449.158 424.809 448.799 425.187 448.335 425.437C447.873 425.687 447.34 425.809 446.734 425.809ZM447.148 424.102C447.512 424.102 447.837 424.03 448.121 423.888C448.407 423.738 448.63 423.53 448.788 423.263C448.949 422.996 449.03 422.687 449.03 422.34C449.03 421.984 448.949 421.678 448.788 421.42C448.63 421.153 448.407 420.95 448.121 420.805C447.837 420.655 447.512 420.58 447.148 420.58C446.784 420.58 446.458 420.655 446.175 420.805C445.889 420.95 445.663 421.153 445.494 421.42C445.333 421.678 445.252 421.984 445.252 422.34C445.252 422.687 445.333 422.996 445.494 423.263C445.663 423.53 445.889 423.738 446.175 423.888C446.458 424.03 446.784 424.102 447.148 424.102ZM456.586 426.265C455.766 426.265 455.046 426.104 454.423 425.784C453.809 425.465 453.333 425.028 452.994 424.475C452.658 423.916 452.488 423.279 452.488 422.568C452.488 421.848 452.652 421.211 452.983 420.661C453.319 420.099 453.778 419.662 454.356 419.351C454.934 419.031 455.588 418.87 456.319 418.87C457.019 418.87 457.653 419.023 458.212 419.326C458.782 419.618 459.232 420.046 459.56 420.605C459.888 421.158 460.055 421.82 460.055 422.596C460.055 422.673 460.049 422.768 460.041 422.874C460.033 422.974 460.022 423.065 460.013 423.154H454.184V421.939H458.921L458.12 422.301C458.12 421.928 458.042 421.603 457.892 421.328C457.742 421.05 457.531 420.838 457.264 420.686C456.997 420.527 456.686 420.446 456.33 420.446C455.974 420.446 455.66 420.527 455.385 420.686C455.118 420.838 454.907 421.055 454.757 421.339C454.606 421.617 454.529 421.945 454.529 422.329V422.648C454.529 423.04 454.615 423.385 454.784 423.688C454.962 423.983 455.207 424.208 455.518 424.369C455.838 424.519 456.21 424.597 456.639 424.597C457.019 424.597 457.353 424.539 457.639 424.422C457.931 424.308 458.198 424.133 458.44 423.902L459.546 425.103C459.218 425.476 458.804 425.765 458.306 425.971C457.809 426.165 457.233 426.265 456.586 426.265ZM464.522 426.265C463.847 426.265 463.238 426.113 462.693 425.809C462.151 425.498 461.72 425.067 461.401 424.517C461.089 423.963 460.933 423.316 460.933 422.568C460.933 421.812 461.089 421.158 461.401 420.605C461.72 420.054 462.151 419.626 462.693 419.326C463.238 419.023 463.847 418.87 464.522 418.87C465.128 418.87 465.657 419.004 466.11 419.27C466.563 419.537 466.916 419.943 467.163 420.485C467.413 421.028 467.539 421.723 467.539 422.568C467.539 423.405 467.419 424.097 467.177 424.65C466.938 425.192 466.591 425.598 466.138 425.865C465.693 426.132 465.153 426.265 464.522 426.265ZM464.884 424.556C465.22 424.556 465.529 424.475 465.804 424.316C466.079 424.155 466.296 423.93 466.457 423.635C466.627 423.332 466.71 422.976 466.71 422.568C466.71 422.151 466.627 421.795 466.457 421.5C466.296 421.205 466.079 420.98 465.804 420.819C465.529 420.661 465.22 420.58 464.884 420.58C464.536 420.58 464.225 420.661 463.95 420.819C463.672 420.98 463.449 421.205 463.283 421.5C463.121 421.795 463.041 422.151 463.041 422.568C463.041 422.976 463.121 423.332 463.283 423.635C463.449 423.93 463.672 424.155 463.95 424.316C464.225 424.475 464.536 424.556 464.884 424.556ZM466.763 426.157V424.689L466.805 422.554L466.671 420.433V416.257H468.753V426.157H466.763ZM472.615 422.915C472.615 422.604 472.662 422.329 472.759 422.087C472.868 421.848 472.996 421.634 473.148 421.447C473.307 421.261 473.476 421.086 473.654 420.927C473.832 420.766 473.996 420.616 474.149 420.471C474.308 420.321 474.438 420.166 474.536 420.004C474.641 419.846 474.694 419.668 474.694 419.471C474.694 419.151 474.561 418.892 474.294 418.698C474.038 418.503 473.691 418.403 473.254 418.403C472.837 418.403 472.462 418.492 472.134 418.67C471.803 418.839 471.533 419.081 471.319 419.393L469.704 418.445C470.06 417.903 470.555 417.469 471.186 417.149C471.817 416.821 472.581 416.657 473.482 416.657C474.149 416.657 474.736 416.754 475.242 416.949C475.75 417.135 476.145 417.413 476.429 417.777C476.723 418.142 476.871 418.592 476.871 419.126C476.871 419.471 476.818 419.779 476.71 420.046C476.604 420.313 476.465 420.544 476.295 420.738C476.129 420.936 475.945 421.116 475.75 421.286C475.561 421.456 475.384 421.62 475.217 421.781C475.047 421.939 474.905 422.109 474.789 422.287C474.683 422.465 474.627 422.673 474.627 422.915H472.615ZM473.627 426.265C473.254 426.265 472.948 426.143 472.706 425.904C472.467 425.665 472.348 425.379 472.348 425.05C472.348 424.711 472.467 424.431 472.706 424.208C472.948 423.977 473.254 423.863 473.627 423.863C474.01 423.863 474.316 423.977 474.55 424.208C474.789 424.431 474.908 424.711 474.908 425.05C474.908 425.379 474.789 425.665 474.55 425.904C474.316 426.143 474.01 426.265 473.627 426.265Z" fill="#81BC06"/>
<path d="M719.205 324.312H597.166V501.968H719.205V324.312Z" stroke="#05A6F0" stroke-width="5"/>
<path d="M621.655 409.965C620.915 409.965 620.231 409.843 619.6 409.604C618.978 409.365 618.435 409.025 617.971 408.589C617.518 408.152 617.162 407.641 616.904 407.054C616.656 406.468 616.531 405.828 616.531 405.133C616.531 404.438 616.656 403.799 616.904 403.212C617.162 402.625 617.524 402.114 617.985 401.677C618.447 401.241 618.991 400.902 619.614 400.662C620.237 400.423 620.912 400.301 621.641 400.301C622.38 400.301 623.056 400.423 623.67 400.662C624.293 400.902 624.829 401.241 625.285 401.677C625.747 402.114 626.108 402.625 626.364 403.212C626.622 403.79 626.753 404.43 626.753 405.133C626.753 405.828 626.622 406.473 626.364 407.068C626.108 407.655 625.747 408.166 625.285 408.603C624.829 409.031 624.293 409.365 623.67 409.604C623.056 409.843 622.383 409.965 621.655 409.965ZM621.641 408.122C622.06 408.122 622.441 408.052 622.789 407.908C623.145 407.766 623.456 407.563 623.723 407.296C623.99 407.029 624.195 406.712 624.337 406.348C624.487 405.984 624.562 405.578 624.562 405.133C624.562 404.688 624.487 404.282 624.337 403.918C624.195 403.554 623.99 403.237 623.723 402.97C623.464 402.703 623.159 402.5 622.803 402.358C622.447 402.214 622.06 402.144 621.641 402.144C621.224 402.144 620.837 402.214 620.482 402.358C620.134 402.5 619.825 402.703 619.559 402.97C619.292 403.237 619.083 403.554 618.933 403.918C618.791 404.282 618.719 404.688 618.719 405.133C618.719 405.569 618.791 405.973 618.933 406.348C619.083 406.712 619.289 407.029 619.547 407.296C619.814 407.563 620.126 407.766 620.482 407.908C620.837 408.052 621.224 408.122 621.641 408.122ZM632.594 402.517C633.164 402.517 633.669 402.634 634.114 402.864C634.567 403.087 634.923 403.434 635.182 403.904C635.44 404.368 635.568 404.963 635.568 405.695V409.804H633.486V406.014C633.486 405.436 633.358 405.008 633.1 404.733C632.852 404.457 632.496 404.318 632.032 404.318C631.704 404.318 631.407 404.391 631.14 404.532C630.881 404.666 630.675 404.874 630.525 405.161C630.384 405.444 630.311 405.809 630.311 406.253V409.804H628.229V402.625H630.217V404.613L629.844 404.013C630.103 403.532 630.473 403.162 630.951 402.903C631.432 402.648 631.979 402.517 632.594 402.517ZM641.698 409.909C641.067 409.909 640.525 409.776 640.072 409.509C639.616 409.242 639.271 408.839 639.029 408.297C638.79 407.744 638.671 407.051 638.671 406.215C638.671 405.369 638.793 404.674 639.043 404.132C639.302 403.59 639.657 403.184 640.111 402.917C640.564 402.65 641.095 402.517 641.698 402.517C642.373 402.517 642.979 402.67 643.513 402.97C644.055 403.273 644.483 403.701 644.795 404.252C645.114 404.805 645.276 405.458 645.276 406.215C645.276 406.962 645.114 407.61 644.795 408.163C644.483 408.714 644.055 409.145 643.513 409.456C642.979 409.759 642.373 409.909 641.698 409.909ZM637.456 409.804V399.901H639.538V404.079L639.404 406.201L639.443 408.336V409.804H637.456ZM641.339 408.202C641.684 408.202 641.993 408.122 642.259 407.963C642.535 407.802 642.751 407.574 642.913 407.282C643.082 406.979 643.166 406.623 643.166 406.215C643.166 405.795 643.082 405.439 642.913 405.147C642.751 404.852 642.535 404.627 642.259 404.466C641.993 404.305 641.684 404.227 641.339 404.227C640.992 404.227 640.68 404.305 640.405 404.466C640.127 404.627 639.91 404.852 639.749 405.147C639.591 405.439 639.51 405.795 639.51 406.215C639.51 406.623 639.591 406.979 639.749 407.282C639.91 407.574 640.127 407.802 640.405 407.963C640.68 408.122 640.992 408.202 641.339 408.202ZM650.085 409.909C649.32 409.909 648.639 409.751 648.042 409.431C647.455 409.109 646.988 408.675 646.641 408.122C646.304 407.563 646.135 406.926 646.135 406.215C646.135 405.494 646.304 404.858 646.641 404.304C646.988 403.746 647.455 403.309 648.042 402.998C648.639 402.678 649.32 402.517 650.085 402.517C650.841 402.517 651.517 402.678 652.111 402.998C652.709 403.309 653.176 403.74 653.513 404.293C653.852 404.844 654.021 405.483 654.021 406.215C654.021 406.926 653.852 407.563 653.513 408.122C653.176 408.675 652.709 409.109 652.111 409.431C651.517 409.751 650.841 409.909 650.085 409.909ZM650.085 408.202C650.432 408.202 650.744 408.122 651.019 407.963C651.294 407.802 651.511 407.574 651.672 407.282C651.833 406.979 651.911 406.623 651.911 406.215C651.911 405.795 651.833 405.439 651.672 405.147C651.511 404.852 651.294 404.627 651.019 404.466C650.744 404.305 650.432 404.227 650.085 404.227C649.737 404.227 649.426 404.305 649.151 404.466C648.876 404.627 648.653 404.852 648.484 405.147C648.322 405.439 648.242 405.795 648.242 406.215C648.242 406.623 648.322 406.979 648.484 407.282C648.653 407.574 648.876 407.802 649.151 407.963C649.426 408.122 649.737 408.202 650.085 408.202ZM659.698 409.804V408.403L659.564 408.097V405.586C659.564 405.141 659.425 404.794 659.15 404.546C658.883 404.296 658.469 404.171 657.91 404.171C657.527 404.171 657.149 404.235 656.776 404.36C656.412 404.474 656.101 404.635 655.842 404.838L655.094 403.384C655.486 403.109 655.956 402.895 656.509 402.745C657.06 402.592 657.621 402.517 658.191 402.517C659.284 402.517 660.134 402.775 660.738 403.292C661.344 403.807 661.647 404.613 661.647 405.706V409.804H659.698ZM657.51 409.909C656.949 409.909 656.468 409.818 656.067 409.631C655.667 409.434 655.361 409.173 655.147 408.842C654.933 408.514 654.827 408.144 654.827 407.735C654.827 407.307 654.93 406.935 655.133 406.615C655.347 406.295 655.681 406.045 656.134 405.867C656.59 405.681 657.179 405.586 657.91 405.586H659.817V406.801H658.136C657.646 406.801 657.31 406.882 657.124 407.04C656.946 407.202 656.857 407.402 656.857 407.641C656.857 407.908 656.957 408.122 657.163 408.283C657.377 408.433 657.666 408.508 658.03 408.508C658.377 408.508 658.689 408.43 658.964 408.269C659.239 408.099 659.439 407.855 659.564 407.535L659.884 408.497C659.734 408.959 659.459 409.309 659.059 409.551C658.658 409.79 658.141 409.909 657.51 409.909ZM663.531 409.804V402.625H665.519V404.652L665.238 404.065C665.452 403.559 665.794 403.176 666.267 402.917C666.737 402.65 667.312 402.517 667.988 402.517V404.438C667.899 404.43 667.818 404.427 667.746 404.427C667.676 404.416 667.601 404.413 667.521 404.413C666.951 404.413 666.489 404.577 666.133 404.905C665.786 405.228 665.611 405.728 665.611 406.415V409.804H663.531ZM672.255 409.909C671.579 409.909 670.97 409.759 670.426 409.456C669.883 409.145 669.453 408.714 669.133 408.163C668.822 407.61 668.666 406.962 668.666 406.215C668.666 405.458 668.822 404.805 669.133 404.252C669.453 403.701 669.883 403.273 670.426 402.97C670.97 402.67 671.579 402.517 672.255 402.517C672.861 402.517 673.389 402.65 673.842 402.917C674.295 403.184 674.648 403.59 674.896 404.132C675.146 404.674 675.271 405.369 675.271 406.215C675.271 407.051 675.151 407.744 674.91 408.297C674.671 408.839 674.323 409.242 673.87 409.509C673.425 409.776 672.886 409.909 672.255 409.909ZM672.616 408.202C672.953 408.202 673.261 408.122 673.536 407.963C673.812 407.802 674.028 407.574 674.19 407.282C674.359 406.979 674.443 406.623 674.443 406.215C674.443 405.795 674.359 405.439 674.19 405.147C674.028 404.852 673.812 404.627 673.536 404.466C673.261 404.305 672.953 404.227 672.616 404.227C672.269 404.227 671.957 404.305 671.682 404.466C671.404 404.627 671.182 404.852 671.015 405.147C670.854 405.439 670.773 405.795 670.773 406.215C670.773 406.623 670.854 406.979 671.015 407.282C671.182 407.574 671.404 407.802 671.682 407.963C671.957 408.122 672.269 408.202 672.616 408.202ZM674.495 409.804V408.336L674.537 406.201L674.404 404.079V399.901H676.486V409.804H674.495ZM678.412 409.804V402.625H680.492V409.804H678.412ZM679.452 401.624C679.068 401.624 678.757 401.513 678.518 401.291C678.279 401.068 678.157 400.79 678.157 400.462C678.157 400.134 678.279 399.856 678.518 399.634C678.757 399.411 679.068 399.3 679.452 399.3C679.836 399.3 680.147 399.409 680.386 399.623C680.625 399.826 680.747 400.092 680.747 400.423C680.747 400.768 680.625 401.057 680.386 401.291C680.155 401.513 679.844 401.624 679.452 401.624ZM686.788 402.517C687.358 402.517 687.864 402.634 688.309 402.864C688.762 403.087 689.118 403.434 689.376 403.904C689.635 404.368 689.763 404.963 689.763 405.695V409.804H687.683V406.014C687.683 405.436 687.553 405.008 687.294 404.733C687.047 404.457 686.691 404.318 686.227 404.318C685.899 404.318 685.601 404.391 685.334 404.532C685.076 404.666 684.87 404.874 684.72 405.161C684.578 405.444 684.506 405.809 684.506 406.253V409.804H682.424V402.625H684.414V404.613L684.039 404.013C684.297 403.532 684.667 403.162 685.148 402.903C685.626 402.648 686.174 402.517 686.788 402.517ZM695.078 412.501C694.402 412.501 693.749 412.414 693.118 412.245C692.495 412.086 691.976 411.842 691.556 411.511L692.384 410.018C692.687 410.265 693.068 410.463 693.532 410.604C694.002 410.755 694.466 410.832 694.92 410.832C695.656 410.832 696.19 410.666 696.521 410.338C696.857 410.01 697.027 409.52 697.027 408.87V407.788L697.16 405.987L697.135 404.171V402.625H699.109V408.603C699.109 409.937 698.761 410.921 698.069 411.553C697.374 412.184 696.379 412.501 695.078 412.501ZM694.758 409.456C694.091 409.456 693.488 409.314 692.943 409.031C692.409 408.736 691.978 408.33 691.65 407.816C691.331 407.29 691.169 406.682 691.169 405.987C691.169 405.283 691.331 404.674 691.65 404.16C691.978 403.634 692.409 403.229 692.943 402.945C693.488 402.659 694.091 402.517 694.758 402.517C695.364 402.517 695.898 402.642 696.359 402.892C696.824 403.131 697.182 403.509 697.441 404.026C697.699 404.532 697.827 405.186 697.827 405.987C697.827 406.779 697.699 407.432 697.441 407.949C697.182 408.455 696.824 408.833 696.359 409.084C695.898 409.331 695.364 409.456 694.758 409.456ZM695.172 407.749C695.537 407.749 695.862 407.677 696.145 407.535C696.432 407.385 696.654 407.174 696.813 406.907C696.974 406.64 697.054 406.334 697.054 405.987C697.054 405.631 696.974 405.325 696.813 405.066C696.654 404.799 696.432 404.594 696.145 404.452C695.862 404.302 695.537 404.227 695.172 404.227C694.808 404.227 694.483 404.302 694.199 404.452C693.913 404.594 693.688 404.799 693.518 405.066C693.357 405.325 693.277 405.631 693.277 405.987C693.277 406.334 693.357 406.64 693.518 406.907C693.688 407.174 693.913 407.385 694.199 407.535C694.483 407.677 694.808 407.749 695.172 407.749ZM638.084 426.313C637.472 426.313 636.88 426.243 636.31 426.101C635.749 425.948 635.304 425.762 634.976 425.54L635.671 424.044C635.999 424.25 636.385 424.419 636.83 424.553C637.283 424.678 637.728 424.739 638.165 424.739C638.646 424.739 638.985 424.681 639.179 424.567C639.385 424.45 639.485 424.289 639.485 424.086C639.485 423.916 639.407 423.791 639.246 423.71C639.096 423.621 638.89 423.555 638.632 423.51C638.373 423.466 638.09 423.421 637.778 423.377C637.475 423.332 637.169 423.277 636.858 423.204C636.547 423.124 636.26 423.01 636.005 422.857C635.746 422.707 635.538 422.501 635.376 422.242C635.226 421.987 635.148 421.653 635.148 421.242C635.148 420.788 635.279 420.388 635.538 420.041C635.804 419.696 636.185 419.423 636.683 419.229C637.183 419.023 637.778 418.92 638.473 418.92C638.962 418.92 639.46 418.973 639.966 419.081C640.475 419.187 640.897 419.343 641.234 419.548L640.541 421.03C640.194 420.825 639.841 420.686 639.485 420.616C639.14 420.535 638.801 420.496 638.473 420.496C638.009 420.496 637.673 420.558 637.459 420.683C637.244 420.808 637.139 420.966 637.139 421.164C637.139 421.342 637.214 421.475 637.364 421.564C637.525 421.653 637.734 421.723 637.992 421.775C638.251 421.831 638.529 421.878 638.832 421.923C639.143 421.959 639.454 422.017 639.766 422.098C640.077 422.176 640.358 422.292 640.608 422.443C640.864 422.587 641.075 422.787 641.234 423.043C641.395 423.293 641.475 423.621 641.475 424.033C641.475 424.478 641.342 424.873 641.075 425.22C640.808 425.556 640.419 425.823 639.913 426.021C639.416 426.215 638.807 426.313 638.084 426.313ZM646.229 426.313C645.454 426.313 644.764 426.157 644.161 425.846C643.555 425.526 643.08 425.087 642.732 424.525C642.393 423.966 642.226 423.33 642.226 422.618C642.226 421.898 642.393 421.261 642.732 420.708C643.08 420.149 643.555 419.712 644.161 419.401C644.764 419.081 645.454 418.92 646.229 418.92C646.985 418.92 647.641 419.081 648.203 419.401C648.764 419.712 649.176 420.163 649.443 420.749L647.83 421.617C647.641 421.278 647.408 421.03 647.122 420.869C646.846 420.708 646.543 420.63 646.215 420.63C645.859 420.63 645.54 420.708 645.253 420.869C644.97 421.03 644.742 421.255 644.572 421.55C644.414 421.842 644.333 422.198 644.333 422.618C644.333 423.035 644.414 423.391 644.572 423.685C644.742 423.977 644.97 424.205 645.253 424.367C645.54 424.525 645.859 424.606 646.215 424.606C646.543 424.606 646.846 424.531 647.122 424.378C647.408 424.219 647.641 423.966 647.83 423.619L649.443 424.5C649.176 425.078 648.764 425.526 648.203 425.846C647.641 426.157 646.985 426.313 646.229 426.313ZM650.644 426.207V419.029H652.631V421.055L652.351 420.469C652.565 419.963 652.907 419.579 653.379 419.32C653.849 419.054 654.424 418.92 655.1 418.92V420.841C655.011 420.833 654.93 420.83 654.858 420.83C654.789 420.819 654.714 420.816 654.633 420.816C654.063 420.816 653.602 420.98 653.246 421.308C652.898 421.631 652.723 422.131 652.723 422.818V426.207H650.644ZM659.848 426.313C659.028 426.313 658.308 426.154 657.685 425.835C657.071 425.512 656.595 425.078 656.259 424.525C655.92 423.966 655.75 423.33 655.75 422.618C655.75 421.898 655.914 421.261 656.245 420.708C656.582 420.149 657.04 419.712 657.619 419.401C658.197 419.081 658.85 418.92 659.581 418.92C660.284 418.92 660.915 419.073 661.474 419.373C662.044 419.668 662.494 420.096 662.823 420.655C663.153 421.208 663.317 421.87 663.317 422.643C663.317 422.723 663.312 422.818 663.303 422.924C663.295 423.021 663.287 423.115 663.276 423.204H657.446V421.989H662.183L661.382 422.351C661.382 421.976 661.307 421.653 661.155 421.375C661.004 421.1 660.796 420.886 660.529 420.736C660.262 420.574 659.951 420.496 659.595 420.496C659.239 420.496 658.922 420.574 658.647 420.736C658.38 420.886 658.172 421.105 658.019 421.389C657.869 421.664 657.794 421.995 657.794 422.376V422.698C657.794 423.088 657.877 423.435 658.047 423.738C658.224 424.033 658.469 424.258 658.781 424.419C659.1 424.569 659.473 424.645 659.901 424.645C660.284 424.645 660.618 424.589 660.902 424.472C661.196 424.355 661.463 424.183 661.702 423.952L662.809 425.153C662.481 425.526 662.066 425.815 661.569 426.021C661.071 426.215 660.496 426.313 659.848 426.313ZM668.266 426.313C667.448 426.313 666.726 426.154 666.103 425.835C665.491 425.512 665.013 425.078 664.677 424.525C664.338 423.966 664.168 423.33 664.168 422.618C664.168 421.898 664.335 421.261 664.663 420.708C665.002 420.149 665.458 419.712 666.036 419.401C666.614 419.081 667.27 418.92 667.999 418.92C668.702 418.92 669.333 419.073 669.895 419.373C670.462 419.668 670.912 420.096 671.24 420.655C671.571 421.208 671.735 421.87 671.735 422.643C671.735 422.723 671.729 422.818 671.721 422.924C671.713 423.021 671.704 423.115 671.696 423.204H665.864V421.989H670.601L669.8 422.351C669.8 421.976 669.725 421.653 669.572 421.375C669.422 421.1 669.214 420.886 668.947 420.736C668.68 420.574 668.368 420.496 668.013 420.496C667.657 420.496 667.34 420.574 667.065 420.736C666.798 420.886 666.589 421.105 666.436 421.389C666.286 421.664 666.211 421.995 666.211 422.376V422.698C666.211 423.088 666.295 423.435 666.464 423.738C666.642 424.033 666.887 424.258 667.198 424.419C667.518 424.569 667.893 424.645 668.318 424.645C668.702 424.645 669.036 424.589 669.319 424.472C669.614 424.355 669.881 424.183 670.12 423.952L671.229 425.153C670.898 425.526 670.484 425.815 669.986 426.021C669.489 426.215 668.916 426.313 668.266 426.313ZM677.484 418.92C678.054 418.92 678.56 419.037 679.004 419.268C679.46 419.49 679.816 419.838 680.072 420.307C680.33 420.772 680.461 421.367 680.461 422.098V426.207H678.379V422.418C678.379 421.839 678.248 421.411 677.993 421.136C677.742 420.861 677.387 420.722 676.925 420.722C676.594 420.722 676.297 420.794 676.03 420.936C675.771 421.069 675.568 421.278 675.416 421.564C675.274 421.848 675.202 422.212 675.202 422.657V426.207H673.122V419.029H675.11V421.016L674.734 420.416C674.993 419.935 675.363 419.565 675.844 419.307C676.325 419.051 676.869 418.92 677.484 418.92Z" fill="#81BC06"/>
<path d="M510.255 87.4377H388.216V265.094H510.255V87.4377Z" stroke="#05A6F0" stroke-width="5"/>
<path d="M410.389 171.929H412.549V181.27H410.389V171.929ZM406.144 181.27H403.984V171.929H406.144V181.27ZM410.547 177.44H405.985V175.612H410.547V177.44ZM418.028 181.377C417.264 181.377 416.583 181.217 415.988 180.896C415.401 180.576 414.934 180.14 414.587 179.589C414.247 179.028 414.081 178.392 414.081 177.68C414.081 176.96 414.247 176.323 414.587 175.772C414.934 175.211 415.401 174.775 415.988 174.464C416.583 174.144 417.264 173.984 418.028 173.984C418.784 173.984 419.463 174.144 420.057 174.464C420.652 174.775 421.119 175.207 421.458 175.759C421.798 176.31 421.964 176.951 421.964 177.68C421.964 178.392 421.798 179.028 421.458 179.589C421.119 180.14 420.652 180.576 420.057 180.896C419.463 181.217 418.784 181.377 418.028 181.377ZM418.028 179.669C418.376 179.669 418.687 179.589 418.962 179.428C419.24 179.268 419.457 179.041 419.618 178.748C419.777 178.445 419.857 178.089 419.857 177.68C419.857 177.262 419.777 176.906 419.618 176.613C419.457 176.319 419.24 176.092 418.962 175.932C418.687 175.772 418.376 175.692 418.028 175.692C417.683 175.692 417.372 175.772 417.094 175.932C416.819 176.092 416.596 176.319 416.427 176.613C416.268 176.906 416.188 177.262 416.188 177.68C416.188 178.089 416.268 178.445 416.427 178.748C416.596 179.041 416.819 179.268 417.094 179.428C417.372 179.589 417.683 179.669 418.028 179.669ZM432.55 173.984C433.12 173.984 433.623 174.099 434.06 174.331C434.505 174.553 434.849 174.9 435.1 175.372C435.358 175.834 435.486 176.43 435.486 177.16V181.27H433.404V177.48C433.404 176.902 433.284 176.475 433.045 176.199C432.803 175.923 432.467 175.785 432.031 175.785C431.728 175.785 431.458 175.856 431.216 175.999C430.977 176.132 430.791 176.337 430.657 176.613C430.524 176.888 430.457 177.24 430.457 177.667V181.27H428.375V177.48C428.375 176.902 428.255 176.475 428.014 176.199C427.783 175.923 427.449 175.785 427.013 175.785C426.71 175.785 426.44 175.856 426.198 175.999C425.959 176.132 425.773 176.337 425.639 176.613C425.506 176.888 425.439 177.24 425.439 177.667V181.27H423.357V174.09H425.345V176.052L424.972 175.478C425.22 174.989 425.573 174.62 426.026 174.371C426.487 174.113 427.013 173.984 427.599 173.984C428.258 173.984 428.834 174.153 429.323 174.491C429.82 174.82 430.149 175.327 430.31 176.012L429.576 175.812C429.815 175.251 430.199 174.807 430.724 174.477C431.258 174.148 431.867 173.984 432.55 173.984ZM440.968 181.377C440.148 181.377 439.428 181.217 438.805 180.896C438.191 180.576 437.715 180.14 437.376 179.589C437.04 179.028 436.87 178.392 436.87 177.68C436.87 176.96 437.034 176.323 437.365 175.772C437.702 175.211 438.16 174.775 438.738 174.464C439.317 174.144 439.97 173.984 440.701 173.984C441.402 173.984 442.035 174.135 442.594 174.437C443.164 174.731 443.614 175.158 443.942 175.719C444.271 176.27 444.437 176.933 444.437 177.707C444.437 177.787 444.432 177.88 444.423 177.987C444.415 178.085 444.404 178.178 444.396 178.267H438.566V177.053H443.303L442.503 177.413C442.503 177.04 442.425 176.715 442.275 176.439C442.124 176.163 441.913 175.95 441.646 175.799C441.379 175.638 441.068 175.558 440.712 175.558C440.356 175.558 440.042 175.638 439.767 175.799C439.5 175.95 439.289 176.168 439.139 176.452C438.989 176.728 438.911 177.057 438.911 177.44V177.76C438.911 178.152 438.997 178.499 439.167 178.801C439.345 179.095 439.589 179.322 439.901 179.482C440.22 179.633 440.593 179.709 441.021 179.709C441.402 179.709 441.735 179.651 442.022 179.535C442.313 179.42 442.58 179.246 442.822 179.015L443.929 180.216C443.601 180.589 443.186 180.879 442.689 181.083C442.191 181.279 441.616 181.377 440.968 181.377ZM452.015 181.377C451.404 181.377 450.812 181.306 450.242 181.163C449.68 181.012 449.235 180.825 448.907 180.603L449.602 179.108C449.93 179.313 450.317 179.482 450.762 179.615C451.215 179.74 451.66 179.802 452.096 179.802C452.577 179.802 452.916 179.744 453.111 179.629C453.316 179.513 453.416 179.353 453.416 179.148C453.416 178.979 453.339 178.855 453.177 178.775C453.027 178.686 452.822 178.619 452.563 178.574C452.305 178.53 452.021 178.485 451.71 178.441C451.407 178.396 451.101 178.339 450.789 178.267C450.478 178.187 450.192 178.072 449.936 177.92C449.677 177.769 449.469 177.565 449.308 177.307C449.158 177.049 449.08 176.715 449.08 176.306C449.08 175.852 449.21 175.452 449.469 175.105C449.736 174.758 450.117 174.486 450.614 174.291C451.115 174.086 451.71 173.984 452.405 173.984C452.894 173.984 453.391 174.037 453.897 174.144C454.406 174.251 454.829 174.406 455.165 174.611L454.473 176.092C454.125 175.888 453.772 175.75 453.416 175.678C453.072 175.598 452.733 175.558 452.405 175.558C451.94 175.558 451.604 175.621 451.39 175.745C451.176 175.87 451.07 176.03 451.07 176.226C451.07 176.404 451.145 176.537 451.295 176.626C451.457 176.715 451.665 176.786 451.924 176.84C452.182 176.893 452.46 176.942 452.763 176.986C453.075 177.022 453.386 177.08 453.697 177.16C454.009 177.24 454.289 177.355 454.54 177.507C454.795 177.649 455.007 177.849 455.165 178.107C455.326 178.356 455.407 178.686 455.407 179.095C455.407 179.54 455.273 179.936 455.007 180.283C454.74 180.621 454.351 180.887 453.845 181.083C453.347 181.279 452.738 181.377 452.015 181.377ZM460.161 181.377C459.385 181.377 458.696 181.221 458.092 180.91C457.486 180.589 457.011 180.149 456.663 179.589C456.324 179.028 456.157 178.392 456.157 177.68C456.157 176.96 456.324 176.323 456.663 175.772C457.011 175.211 457.486 174.775 458.092 174.464C458.696 174.144 459.385 173.984 460.161 173.984C460.917 173.984 461.573 174.144 462.134 174.464C462.696 174.775 463.107 175.225 463.374 175.812L461.762 176.679C461.573 176.341 461.339 176.092 461.053 175.932C460.778 175.772 460.475 175.692 460.147 175.692C459.791 175.692 459.471 175.772 459.185 175.932C458.901 176.092 458.673 176.319 458.504 176.613C458.345 176.906 458.265 177.262 458.265 177.68C458.265 178.098 458.345 178.454 458.504 178.748C458.673 179.041 458.901 179.268 459.185 179.428C459.471 179.589 459.791 179.669 460.147 179.669C460.475 179.669 460.778 179.593 461.053 179.442C461.339 179.282 461.573 179.028 461.762 178.681L463.374 179.562C463.107 180.14 462.696 180.589 462.134 180.91C461.573 181.221 460.917 181.377 460.161 181.377ZM464.572 181.27V174.09H466.563V176.119L466.282 175.532C466.496 175.025 466.838 174.642 467.308 174.384C467.78 174.117 468.353 173.984 469.031 173.984V175.905C468.942 175.896 468.862 175.892 468.789 175.892C468.72 175.883 468.642 175.879 468.564 175.879C467.994 175.879 467.53 176.043 467.174 176.372C466.83 176.693 466.654 177.195 466.654 177.88V181.27H464.572ZM473.779 181.377C472.959 181.377 472.239 181.217 471.617 180.896C471.002 180.576 470.527 180.14 470.191 179.589C469.851 179.028 469.682 178.392 469.682 177.68C469.682 176.96 469.846 176.323 470.177 175.772C470.513 175.211 470.972 174.775 471.55 174.464C472.128 174.144 472.781 173.984 473.513 173.984C474.216 173.984 474.847 174.135 475.406 174.437C475.976 174.731 476.426 175.158 476.754 175.719C477.085 176.27 477.249 176.933 477.249 177.707C477.249 177.787 477.243 177.88 477.235 177.987C477.227 178.085 477.218 178.178 477.207 178.267H471.378V177.053H476.115L475.314 177.413C475.314 177.04 475.239 176.715 475.086 176.439C474.936 176.163 474.727 175.95 474.46 175.799C474.194 175.638 473.882 175.558 473.526 175.558C473.171 175.558 472.854 175.638 472.578 175.799C472.312 175.95 472.103 176.168 471.95 176.452C471.8 176.728 471.725 177.057 471.725 177.44V177.76C471.725 178.152 471.808 178.499 471.978 178.801C472.156 179.095 472.401 179.322 472.712 179.482C473.032 179.633 473.404 179.709 473.832 179.709C474.216 179.709 474.549 179.651 474.833 179.535C475.128 179.42 475.395 179.246 475.634 179.015L476.74 180.216C476.412 180.589 475.998 180.879 475.5 181.083C475.003 181.279 474.427 181.377 473.779 181.377ZM482.197 181.377C481.377 181.377 480.657 181.217 480.034 180.896C479.42 180.576 478.945 180.14 478.608 179.589C478.269 179.028 478.099 178.392 478.099 177.68C478.099 176.96 478.263 176.323 478.594 175.772C478.931 175.211 479.389 174.775 479.968 174.464C480.546 174.144 481.199 173.984 481.93 173.984C482.633 173.984 483.265 174.135 483.823 174.437C484.393 174.731 484.844 175.158 485.172 175.719C485.502 176.27 485.666 176.933 485.666 177.707C485.666 177.787 485.661 177.88 485.652 177.987C485.644 178.085 485.636 178.178 485.625 178.267H479.795V177.053H484.532L483.732 177.413C483.732 177.04 483.656 176.715 483.504 176.439C483.353 176.163 483.145 175.95 482.878 175.799C482.611 175.638 482.3 175.558 481.944 175.558C481.588 175.558 481.271 175.638 480.996 175.799C480.729 175.95 480.521 176.168 480.368 176.452C480.218 176.728 480.143 177.057 480.143 177.44V177.76C480.143 178.152 480.226 178.499 480.396 178.801C480.574 179.095 480.818 179.322 481.13 179.482C481.449 179.633 481.822 179.709 482.25 179.709C482.633 179.709 482.967 179.651 483.251 179.535C483.545 179.42 483.812 179.246 484.051 179.015L485.158 180.216C484.83 180.589 484.415 180.879 483.918 181.083C483.42 181.279 482.845 181.377 482.197 181.377ZM491.415 173.984C491.985 173.984 492.491 174.099 492.936 174.331C493.389 174.553 493.745 174.9 494.003 175.372C494.262 175.834 494.39 176.43 494.39 177.16V181.27H492.31V177.48C492.31 176.902 492.18 176.475 491.921 176.199C491.674 175.923 491.318 175.785 490.854 175.785C490.526 175.785 490.228 175.856 489.961 175.999C489.703 176.132 489.497 176.341 489.347 176.626C489.205 176.911 489.133 177.275 489.133 177.72V181.27H487.051V174.09H489.041V176.079L488.666 175.478C488.924 174.998 489.294 174.629 489.775 174.371C490.253 174.113 490.801 173.984 491.415 173.984Z" fill="#81BC06"/>
<path d="M175.006 414.124C175.549 413.579 175.549 412.701 175.006 412.156L166.16 403.309C165.618 402.767 164.737 402.767 164.195 403.309C163.652 403.854 163.652 404.733 164.195 405.278L172.058 413.14L164.195 421.002C163.652 421.547 163.652 422.426 164.195 422.971C164.737 423.513 165.618 423.513 166.16 422.971L175.006 414.124ZM110.919 414.53H174.023V411.75H110.919V414.53Z" fill="#F35325"/>
<path d="M593.008 414.124C593.55 413.579 593.55 412.701 593.008 412.156L584.162 403.309C583.62 402.767 582.739 402.767 582.197 403.309C581.655 403.854 581.655 404.733 582.197 405.278L590.058 413.14L582.197 421.002C581.655 421.547 581.655 422.426 582.197 422.971C582.739 423.513 583.62 423.513 584.162 422.971L593.008 414.124ZM528.919 414.53H592.024V411.75H528.919V414.53Z" fill="#F35325"/>
<path d="M370.436 414.124C370.978 413.579 370.978 412.701 370.436 412.156L361.59 403.309C361.045 402.767 360.167 402.767 359.622 403.309C359.08 403.854 359.08 404.733 359.622 405.278L367.487 413.14L359.622 421.002C359.08 421.547 359.08 422.426 359.622 422.971C360.167 423.513 361.045 423.513 361.59 422.971L370.436 414.124ZM306.348 414.53H369.452V411.75H306.348V414.53Z" fill="#F35325"/>
<path d="M705.683 87.4377H583.645V265.094H705.683V87.4377Z" stroke="#05A6F0" stroke-width="5"/>
<path d="M596.958 181.27V171.929H601C601.837 171.929 602.557 172.066 603.163 172.342C603.769 172.609 604.236 172.996 604.564 173.503C604.892 174.01 605.058 174.615 605.058 175.318C605.058 176.012 604.892 176.613 604.564 177.12C604.236 177.627 603.769 178.018 603.163 178.294C602.557 178.561 601.837 178.694 601 178.694H598.159L599.121 177.72V181.27H596.958ZM599.121 177.96L598.159 176.933H600.88C601.547 176.933 602.045 176.791 602.376 176.506C602.704 176.221 602.868 175.825 602.868 175.318C602.868 174.802 602.704 174.402 602.376 174.117C602.045 173.832 601.547 173.69 600.88 173.69H598.159L599.121 172.663V177.96ZM606.44 181.27V174.09H608.428V176.119L608.15 175.532C608.361 175.025 608.706 174.642 609.176 174.384C609.648 174.117 610.221 173.984 610.896 173.984V175.905C610.807 175.896 610.73 175.892 610.657 175.892C610.585 175.883 610.51 175.879 610.429 175.879C609.862 175.879 609.398 176.043 609.042 176.372C608.695 176.693 608.522 177.195 608.522 177.88V181.27H606.44ZM615.5 181.377C614.735 181.377 614.054 181.217 613.457 180.896C612.87 180.576 612.403 180.14 612.056 179.589C611.719 179.028 611.55 178.392 611.55 177.68C611.55 176.96 611.719 176.324 612.056 175.772C612.403 175.211 612.87 174.775 613.457 174.464C614.054 174.144 614.735 173.984 615.5 173.984C616.256 173.984 616.932 174.144 617.526 174.464C618.124 174.775 618.591 175.207 618.928 175.759C619.267 176.31 619.436 176.951 619.436 177.68C619.436 178.392 619.267 179.028 618.928 179.589C618.591 180.14 618.124 180.576 617.526 180.896C616.932 181.217 616.256 181.377 615.5 181.377ZM615.5 179.669C615.847 179.669 616.159 179.589 616.434 179.428C616.709 179.268 616.926 179.041 617.087 178.748C617.248 178.445 617.326 178.089 617.326 177.68C617.326 177.262 617.248 176.906 617.087 176.613C616.926 176.319 616.709 176.092 616.434 175.932C616.159 175.772 615.847 175.692 615.5 175.692C615.152 175.692 614.841 175.772 614.566 175.932C614.291 176.092 614.068 176.319 613.899 176.613C613.737 176.906 613.657 177.262 613.657 177.68C613.657 178.089 613.737 178.445 613.899 178.748C614.068 179.041 614.291 179.268 614.566 179.428C614.841 179.589 615.152 179.669 615.5 179.669ZM621.079 181.27V173.93C621.079 173.121 621.321 172.476 621.802 171.995C622.28 171.506 622.967 171.261 623.856 171.261C624.159 171.261 624.448 171.292 624.724 171.355C625.007 171.417 625.249 171.515 625.444 171.648L624.896 173.156C624.782 173.076 624.651 173.014 624.51 172.969C624.368 172.925 624.215 172.903 624.057 172.903C623.754 172.903 623.517 172.992 623.348 173.17C623.189 173.339 623.109 173.597 623.109 173.944V174.611L623.161 175.505V181.27H621.079ZM619.973 175.852V174.251H624.949V175.852H619.973ZM626.125 181.27V174.09H628.207V181.27H626.125ZM627.164 173.09C626.784 173.09 626.472 172.978 626.23 172.756C625.991 172.534 625.872 172.258 625.872 171.929C625.872 171.599 625.991 171.324 626.23 171.101C626.472 170.879 626.784 170.768 627.164 170.768C627.548 170.768 627.859 170.874 628.098 171.088C628.34 171.292 628.46 171.559 628.46 171.888C628.46 172.235 628.34 172.525 628.098 172.756C627.868 172.978 627.556 173.09 627.164 173.09ZM630.131 181.27V171.368H632.213V181.27H630.131ZM637.709 181.377C636.889 181.377 636.169 181.217 635.546 180.896C634.932 180.576 634.456 180.14 634.117 179.589C633.781 179.028 633.611 178.392 633.611 177.68C633.611 176.96 633.775 176.324 634.106 175.772C634.442 175.211 634.901 174.775 635.479 174.464C636.057 174.144 636.711 173.984 637.442 173.984C638.142 173.984 638.776 174.135 639.335 174.437C639.905 174.731 640.355 175.158 640.683 175.719C641.011 176.27 641.178 176.933 641.178 177.707C641.178 177.787 641.172 177.88 641.164 177.987C641.156 178.085 641.145 178.178 641.136 178.267H635.307V177.053H640.044L639.243 177.413C639.243 177.04 639.165 176.715 639.015 176.439C638.865 176.163 638.654 175.95 638.387 175.799C638.12 175.638 637.809 175.558 637.453 175.558C637.097 175.558 636.783 175.638 636.508 175.799C636.241 175.95 636.03 176.168 635.879 176.453C635.729 176.728 635.652 177.057 635.652 177.44V177.76C635.652 178.152 635.738 178.499 635.907 178.801C636.085 179.095 636.33 179.322 636.641 179.482C636.961 179.633 637.333 179.709 637.761 179.709C638.142 179.709 638.476 179.651 638.762 179.535C639.054 179.42 639.321 179.246 639.563 179.015L640.669 180.216C640.341 180.589 639.927 180.879 639.429 181.083C638.932 181.279 638.356 181.377 637.709 181.377ZM649.557 181.43C648.809 181.43 648.095 181.332 647.408 181.137C646.724 180.932 646.174 180.67 645.754 180.349L646.488 178.721C646.888 179.006 647.361 179.242 647.903 179.428C648.453 179.606 649.009 179.695 649.571 179.695C649.999 179.695 650.341 179.655 650.599 179.575C650.866 179.486 651.061 179.366 651.186 179.215C651.311 179.064 651.372 178.89 651.372 178.694C651.372 178.445 651.275 178.25 651.077 178.107C650.883 177.956 650.624 177.836 650.305 177.747C649.985 177.649 649.629 177.56 649.237 177.48C648.853 177.391 648.467 177.284 648.075 177.16C647.694 177.035 647.341 176.875 647.021 176.679C646.702 176.484 646.44 176.226 646.235 175.905C646.04 175.585 645.94 175.176 645.94 174.678C645.94 174.144 646.085 173.659 646.368 173.223C646.663 172.778 647.097 172.427 647.675 172.169C648.264 171.902 648.998 171.768 649.876 171.768C650.466 171.768 651.044 171.84 651.611 171.982C652.181 172.115 652.684 172.32 653.121 172.596L652.453 174.237C652.017 173.988 651.581 173.806 651.144 173.69C650.71 173.566 650.282 173.503 649.865 173.503C649.446 173.503 649.104 173.552 648.837 173.65C648.57 173.748 648.378 173.877 648.264 174.037C648.147 174.188 648.089 174.366 648.089 174.571C648.089 174.811 648.186 175.007 648.384 175.158C648.578 175.3 648.837 175.416 649.156 175.505C649.476 175.594 649.829 175.683 650.21 175.772C650.602 175.861 650.988 175.963 651.372 176.079C651.764 176.194 652.12 176.35 652.439 176.546C652.759 176.742 653.018 177 653.212 177.32C653.418 177.64 653.521 178.045 653.521 178.534C653.521 179.059 653.374 179.54 653.079 179.976C652.787 180.412 652.345 180.763 651.758 181.03C651.18 181.297 650.446 181.43 649.557 181.43ZM658.319 181.377C657.546 181.377 656.857 181.221 656.251 180.91C655.648 180.589 655.172 180.149 654.825 179.589C654.486 179.028 654.316 178.392 654.316 177.68C654.316 176.96 654.486 176.324 654.825 175.772C655.172 175.211 655.648 174.775 656.251 174.464C656.857 174.144 657.546 173.984 658.319 173.984C659.075 173.984 659.734 174.144 660.296 174.464C660.854 174.775 661.269 175.225 661.535 175.812L659.92 176.679C659.734 176.341 659.498 176.092 659.214 175.932C658.939 175.772 658.636 175.692 658.308 175.692C657.952 175.692 657.63 175.772 657.346 175.932C657.063 176.092 656.835 176.319 656.665 176.613C656.507 176.906 656.426 177.262 656.426 177.68C656.426 178.098 656.507 178.454 656.665 178.748C656.835 179.041 657.063 179.268 657.346 179.428C657.63 179.589 657.952 179.669 658.308 179.669C658.636 179.669 658.939 179.593 659.214 179.442C659.498 179.282 659.734 179.028 659.92 178.681L661.535 179.562C661.269 180.14 660.854 180.589 660.296 180.91C659.734 181.221 659.075 181.377 658.319 181.377ZM662.734 181.27V174.09H664.721V176.119L664.443 175.532C664.654 175.025 664.999 174.642 665.469 174.384C665.942 174.117 666.514 173.984 667.19 173.984V175.905C667.101 175.896 667.023 175.892 666.951 175.892C666.878 175.883 666.803 175.879 666.723 175.879C666.156 175.879 665.691 176.043 665.336 176.372C664.988 176.693 664.816 177.195 664.816 177.88V181.27H662.734ZM671.941 181.377C671.121 181.377 670.401 181.217 669.778 180.896C669.164 180.576 668.688 180.14 668.349 179.589C668.013 179.028 667.843 178.392 667.843 177.68C667.843 176.96 668.007 176.324 668.338 175.772C668.674 175.211 669.133 174.775 669.711 174.464C670.289 174.144 670.943 173.984 671.674 173.984C672.374 173.984 673.008 174.135 673.567 174.437C674.137 174.731 674.587 175.158 674.915 175.719C675.243 176.27 675.41 176.933 675.41 177.707C675.41 177.787 675.404 177.88 675.396 177.987C675.388 178.085 675.377 178.178 675.368 178.267H669.539V177.053H674.276L673.475 177.413C673.475 177.04 673.397 176.715 673.247 176.439C673.097 176.163 672.886 175.95 672.619 175.799C672.352 175.638 672.041 175.558 671.685 175.558C671.329 175.558 671.015 175.638 670.74 175.799C670.473 175.95 670.262 176.168 670.111 176.453C669.961 176.728 669.884 177.057 669.884 177.44V177.76C669.884 178.152 669.97 178.499 670.139 178.801C670.317 179.095 670.562 179.322 670.873 179.482C671.193 179.633 671.565 179.709 671.993 179.709C672.374 179.709 672.708 179.651 672.994 179.535C673.286 179.42 673.553 179.246 673.795 179.015L674.901 180.216C674.573 180.589 674.159 180.879 673.661 181.083C673.164 181.279 672.588 181.377 671.941 181.377ZM680.358 181.377C679.538 181.377 678.818 181.217 678.196 180.896C677.581 180.576 677.106 180.14 676.769 179.589C676.43 179.028 676.261 178.392 676.261 177.68C676.261 176.96 676.425 176.324 676.755 175.772C677.092 175.211 677.551 174.775 678.129 174.464C678.707 174.144 679.36 173.984 680.091 173.984C680.795 173.984 681.426 174.135 681.985 174.437C682.554 174.731 683.005 175.158 683.333 175.719C683.664 176.27 683.828 176.933 683.828 177.707C683.828 177.787 683.822 177.88 683.814 177.987C683.805 178.085 683.797 178.178 683.786 178.267H677.956V177.053H682.693L681.893 177.413C681.893 177.04 681.818 176.715 681.665 176.439C681.515 176.163 681.306 175.95 681.039 175.799C680.773 175.638 680.461 175.558 680.105 175.558C679.749 175.558 679.433 175.638 679.157 175.799C678.89 175.95 678.682 176.168 678.529 176.453C678.379 176.728 678.304 177.057 678.304 177.44V177.76C678.304 178.152 678.387 178.499 678.557 178.801C678.735 179.095 678.979 179.322 679.291 179.482C679.61 179.633 679.983 179.709 680.411 179.709C680.795 179.709 681.128 179.651 681.412 179.535C681.707 179.42 681.973 179.246 682.212 179.015L683.319 180.216C682.991 180.589 682.577 180.879 682.079 181.083C681.581 181.279 681.006 181.377 680.358 181.377ZM689.577 173.984C690.146 173.984 690.652 174.099 691.097 174.331C691.55 174.553 691.906 174.9 692.165 175.372C692.423 175.834 692.551 176.43 692.551 177.16V181.27H690.469V177.48C690.469 176.902 690.341 176.475 690.082 176.199C689.835 175.923 689.479 175.785 689.015 175.785C688.687 175.785 688.389 175.856 688.123 175.999C687.864 176.132 687.658 176.341 687.508 176.626C687.366 176.911 687.294 177.275 687.294 177.72V181.27H685.212V174.09H687.2V176.079L686.827 175.478C687.086 174.998 687.455 174.629 687.934 174.371C688.414 174.113 688.962 173.984 689.577 173.984Z" fill="#81BC06"/>
<path d="M579.486 205.051C580.028 204.508 580.028 203.628 579.486 203.085L570.64 194.238C570.095 193.695 569.217 193.695 568.672 194.238C568.13 194.781 568.13 195.661 568.672 196.204L576.537 204.068L568.672 211.931C568.13 212.474 568.13 213.355 568.672 213.897C569.217 214.44 570.095 214.44 570.64 213.897L579.486 205.051ZM515.398 205.458H578.502V202.678H515.398V205.458Z" fill="#F35325"/>
<path d="M514.414 163.884C513.872 164.427 513.872 165.307 514.414 165.85L523.259 174.696C523.804 175.239 524.683 175.239 525.228 174.696C525.77 174.154 525.77 173.273 525.228 172.73L517.363 164.867L525.228 157.003C525.77 156.46 525.77 155.58 525.228 155.037C524.683 154.494 523.804 154.494 523.259 155.037L514.414 163.884ZM578.502 163.477H515.398V166.257H578.502V163.477Z" fill="#F35325"/>
<path d="M449.942 269.254C449.397 268.711 448.518 268.711 447.973 269.254L439.128 278.099C438.586 278.644 438.586 279.523 439.128 280.068C439.673 280.61 440.551 280.61 441.096 280.068L448.958 272.203L456.819 280.068C457.364 280.61 458.242 280.61 458.787 280.068C459.329 279.523 459.329 278.644 458.787 278.099L449.942 269.254ZM450.348 333.348V270.237H447.568V333.348H450.348Z" fill="#F35325"/>
<path d="M232.999 511.023C232.243 511.154 231.736 511.874 231.866 512.63L233.991 524.96C234.122 525.716 234.841 526.222 235.597 526.092C236.354 525.961 236.861 525.244 236.731 524.488L234.842 513.528L245.799 511.637C246.556 511.507 247.063 510.79 246.933 510.031C246.803 509.274 246.084 508.768 245.327 508.899L232.999 511.023ZM671.343 511.195C520.538 599.637 344.605 589.314 234.037 511.259L232.434 513.528C343.982 592.278 521.099 602.528 672.75 513.592L671.343 511.195Z" fill="#F35325"/>
<path d="M217.883 315.232C218.396 315.802 219.274 315.852 219.846 315.34L229.165 306.991C229.737 306.48 229.785 305.601 229.273 305.029C228.761 304.459 227.882 304.409 227.311 304.923L219.027 312.34L211.609 304.055C211.097 303.486 210.218 303.435 209.646 303.947C209.074 304.461 209.026 305.34 209.538 305.91L217.883 315.232ZM220.307 314.381C227.866 177.184 283.26 74.5984 361.637 29.0388C439.895 -16.4526 541.543 -5.35105 642.343 85.8275L644.205 83.7656C542.766 -7.99403 439.811 -19.6208 360.239 26.6351C280.786 72.8224 225.122 176.459 217.531 314.228L220.307 314.381Z" fill="#F35325"/>
</g>
<defs>
<clipPath id="clip0_176_461">
<rect width="720" height="576.617" fill="white"/>
</clipPath>
</defs>
</svg>
